:SAMPLES-PER-SECOND 30
:FULLY-SPECIFIED
:DEGREES
281
root  -65.5806 40.0282 1.83625 -31.11 -81.9868 27.6883
RightUpLeg  -12.7331 -12.5319 -7.95622
RightLeg  11.5749 6.7319 2.90913
RightFoot  1.89109 -0.620095 5.45033
RightToes  -4.65661e-009 0 -3.6325e-017
Spine  4.77879 -0.691377 6.08109
Spine1  5.66803 0.72838 -4.06759
HEad  -9.43748 -17.6299 0.00756457
LeftShoulder1  0.0633585 3.33854 -32.3623
LeftArm  11.6576 -0.059764 -42.8521
LeftForeArm  23.7974 -25.7012 -4.19924
LeftHand  -0.0504708 7.08572 -0.772775
RightShoulder  -0.605709 -5.29055 27.1681
RightArm  23.3844 2.19047 48.5246
RightForeArm  6.40705 21.8736 4.63183
RightHand  -0.0311048 3.83708 -0.659115
LeftUpLeg  3.20915 0.0199809 4.04423
LeftLeg  25.122 -0.852938 -0.101958
LeftFoot  -9.81011 0.129427 -5.08716
LeftToes  9.86798e-010 -1.28139e-010 1.4132e-011
282
root  -64.9341 39.8626 2.1361 -30.1522 -82.3038 26.5196
RightUpLeg  -13.6182 -12.5432 -8.03892
RightLeg  11.5306 6.85978 2.82651
RightFoot  2.48094 -0.807659 6.79656
RightToes  -4.65661e-009 0 -3.6325e-017
Spine  4.20246 -0.649336 5.96333
Spine1  6.29775 0.735874 -4.00452
HEad  -9.22533 -17.0079 -0.0887859
LeftShoulder1  0.156172 3.09002 -31.6103
LeftArm  9.71143 -2.2249 -43.5364
LeftForeArm  25.5543 -28.9703 -4.8755
LeftHand  -0.0359336 6.2525 0.135545
RightShoulder  -0.580766 -5.22636 26.9654
RightArm  22.1629 3.19001 50.0977
RightForeArm  7.69946 24.0718 4.72444
RightHand  -0.0174868 4.19762 -0.48916
LeftUpLeg  4.26583 0.0485596 4.15669
LeftLeg  24.5842 -2.32827 -0.829402
LeftFoot  -10.289 0.108838 -6.6901
LeftToes  9.86798e-010 -1.28139e-010 1.4132e-011
283
root  -64.2136 39.6914 2.45915 -28.6498 -82.5096 24.9302
RightUpLeg  -14.3461 -12.6238 -8.18937
RightLeg  10.7348 6.69465 2.71114
RightFoot  3.17972 -1.0073 8.0615
RightToes  -4.65661e-009 0 -3.6325e-017
Spine  4.3862 -0.673594 5.40347
Spine1  5.76193 0.539909 -3.71152
HEad  -9.19025 -16.5602 -0.191229
LeftShoulder1  0.201543 2.96527 -31.3023
LeftArm  8.67697 -4.00271 -43.6863
LeftForeArm  25.9657 -32.0198 -5.57459
LeftHand  -0.0307362 4.68902 1.38545
RightShoulder  -0.571305 -5.19873 26.9491
RightArm  21.8045 4.07921 51.1283
RightForeArm  8.60732 26.1258 5.15566
RightHand  -0.0298009 3.81865 -0.627938
LeftUpLeg  4.98162 0.0930343 4.15299
LeftLeg  23.2523 -3.87894 -1.49196
LeftFoot  -13.2194 -0.0626827 -9.32844
LeftToes  9.86798e-010 -1.28139e-010 1.4132e-011
284
root  -63.4332 39.5583 2.85359 -31.4196 -82.4685 27.4062
RightUpLeg  -14.6328 -12.9711 -9.00436
RightLeg  9.45933 6.78333 2.43563
RightFoot  4.03323 -1.27684 9.64408
RightToes  -4.65661e-009 0 -3.6325e-017
Spine  4.98815 -0.709783 4.40909
Spine1  5.01806 0.37148 -3.75635
HEad  -9.02491 -16.1388 -0.28537
LeftShoulder1  0.21799 2.91687 -31.05
LeftArm  6.99284 -5.28032 -43.9855
LeftForeArm  28.2088 -34.997 -6.19088
LeftHand  -0.029984 5.14447 1.51677
RightShoulder  -0.541648 -5.11644 26.796
RightArm  21.5234 4.65713 51.9939
RightForeArm  8.96625 27.6866 5.49411
RightHand  -0.0765578 4.78991 -1.17386
LeftUpLeg  5.46759 1.27889 3.18087
LeftLeg  21.3109 -4.34667 -1.545
LeftFoot  -15.5742 -0.152099 -6.65599
LeftToes  9.86798e-010 -1.28139e-010 1.4132e-011
285
root  -62.5644 39.4114 3.276 -37.064 -82.3781 32.7144
RightUpLeg  -15.0477 -13.1024 -10.133
RightLeg  8.18338 6.93156 1.9582
RightFoot  4.59728 -1.62077 11.7624
RightToes  -4.65661e-009 0 -3.6325e-017
Spine  5.22838 -0.553276 3.20054
Spine1  5.40269 0.456308 -3.81286
HEad  -9.37937 -15.8366 -0.0534991
LeftShoulder1  0.293414 2.71103 -30.9114
LeftArm  6.25562 -7.16722 -44.514
LeftForeArm  28.656 -36.6937 -6.61758
LeftHand  -0.0392594 4.46045 2.12098
RightShoulder  -0.488505 -4.97839 26.3012
RightArm  20.5489 5.32759 52.9925
RightForeArm  11.0276 29.0927 5.71233
RightHand  -0.0519315 4.58011 -0.887846
LeftUpLeg  5.44183 2.35661 1.41143
LeftLeg  20.0009 -2.9939 -0.880237
LeftFoot  -17.066 -0.0748299 -3.52501
LeftToes  9.86798e-010 -1.28139e-010 1.4132e-011
286
root  -61.6586 39.3076 3.68778 -43.241 -82.024 38.6495
RightUpLeg  -15.1425 -13.1579 -11.4508
RightLeg  6.03904 6.89435 1.33593
RightFoot  5.18251 -1.93549 13.5233
RightToes  -4.65661e-009 0 -3.6325e-017
Spine  5.89291 -0.454435 1.21604
Spine1  5.32473 0.391688 -3.59232
HEad  -9.84168 -15.3005 0.391366
LeftShoulder1  0.258912 2.803 -30.7618
LeftArm  6.84183 -9.30231 -44.6311
LeftForeArm  28.2408 -37.5102 -6.86737
LeftHand  -0.0497573 4.22396 2.92549
RightShoulder  -0.504122 -5.0064 26.6594
RightArm  20.2059 5.96923 52.9427
RightForeArm  12.1615 30.2164 5.91841
RightHand  -0.0193642 4.41631 -0.495217
LeftUpLeg  5.02664 2.80325 -0.649619
LeftLeg  18.8452 -1.84844 -0.331742
LeftFoot  -17.6789 0.0529796 -0.93022
LeftToes  9.86798e-010 -1.28139e-010 1.4132e-011
287
root  -60.7767 39.2896 4.08381 -47.4332 -81.6637 42.1275
RightUpLeg  -14.1397 -13.6817 -12.6735
RightLeg  3.14231 6.93791 0.982286
RightFoot  4.72153 -2.01308 14.4244
RightToes  -4.65661e-009 0 -3.6325e-017
Spine  6.82056 -0.534645 -0.0934718
Spine1  5.59681 0.380539 -4.33391
HEad  -11.1238 -13.4751 1.18063
LeftShoulder1  0.178731 3.00656 -29.9035
LeftArm  7.21303 -10.8711 -45.297
LeftForeArm  27.8402 -37.0834 -6.77373
LeftHand  -0.0579276 3.9124 3.04019
RightShoulder  -0.631915 -5.32726 27.9613
RightArm  20.3595 6.66106 52.6759
RightForeArm  12.1601 30.0432 5.87684
RightHand  -0.091765 5.26512 -1.31083
LeftUpLeg  4.26796 2.70236 -2.39158
LeftLeg  19.2328 -1.00189 0.0650563
LeftFoot  -17.235 0.113845 0.222842
LeftToes  9.86798e-010 -1.28139e-010 1.4132e-011
288
root  -59.8615 39.3237 4.39978 -53.3355 -81.4752 47.8721
RightUpLeg  -14.2102 -13.8027 -13.3526
RightLeg  1.12391 6.95764 0.241596
RightFoot  1.71839 -1.52905 13.3569
RightToes  -4.65661e-009 0 -3.6325e-017
Spine  7.62937 0.139471 -2.15487
Spine1  5.32581 0.616722 -2.50016
HEad  -12.0884 -11.3735 0.673905
LeftShoulder1  0.169811 3.05058 -31.3297
LeftArm  7.74707 -11.5597 -44.6607
LeftForeArm  27.9199 -36.0366 -6.48539
LeftHand  -0.0442302 4.31142 2.50683
RightShoulder  -0.590611 -5.22434 27.5752
RightArm  18.9497 5.73909 53.0104
RightForeArm  13.1686 28.5398 5.45793
RightHand  -0.045211 4.82397 -0.812538
LeftUpLeg  2.80215 3.77061 -3.68357
LeftLeg  19.6421 -1.22979 -0.139983
LeftFoot  -15.9998 0.146363 1.22849
LeftToes  9.86798e-010 -1.28139e-010 1.4132e-011
289
root  -59.0706 39.4348 4.72869 -55.0074 -82.2652 49.4327
RightUpLeg  -13.3075 -13.3449 -13.0478
RightLeg  -1.80749 5.4057 -0.141685
RightFoot  -2.26569 -0.968581 12.0104
RightToes  -4.65661e-009 0 -3.6325e-017
Spine  7.97259 0.355098 -1.42317
Spine1  5.18617 1.01307 -3.05976
HEad  -11.7348 -10.9606 0.377624
LeftShoulder1  0.18792 3.00416 -31.4961
LeftArm  8.27723 -11.0427 -44.4221
LeftForeArm  25.7838 -33.6124 -5.98136
LeftHand  -0.0445674 4.52462 2.86565
RightShoulder  -0.545699 -5.10006 27.3984
RightArm  19.1344 4.532 53.7204
RightForeArm  11.5286 25.3446 4.81269
RightHand  -0.103955 4.97538 -1.46607
LeftUpLeg  1.63277 4.11428 -3.94896
LeftLeg  19.6379 -0.726364 0.0532382
LeftFoot  -14.7998 0.141288 1.72767
LeftToes  9.86798e-010 -1.28139e-010 1.4132e-011
290
root  -58.3873 39.5888 4.95498 -55.4191 -83.6137 50.1491
RightUpLeg  -12.9932 -12.4788 -12.0007
RightLeg  -2.71688 1.29234 0.0412413
RightFoot  -4.39911 -0.719203 11.3558
RightToes  -4.65661e-009 0 -3.6325e-017
Spine  7.39344 0.469729 -0.298535
Spine1  5.44857 1.42836 -4.06436
HEad  -11.2443 -10.4113 0.152522
LeftShoulder1  0.140207 3.12785 -31.193
LeftArm  8.80166 -9.92837 -44.3442
LeftForeArm  24.2747 -30.076 -5.20195
LeftHand  -0.0276278 5.27521 1.82205
RightShoulder  -0.588937 -5.20478 27.8696
RightArm  21.0399 4.12375 54.1421
RightForeArm  9.24703 20.6135 4.67004
RightHand  -0.121858 5.22314 -1.6477
LeftUpLeg  0.406033 4.31528 -3.49764
LeftLeg  19.1546 0.0130792 0.343352
LeftFoot  -13.4959 0.120343 2.09428
LeftToes  9.86798e-010 -1.28139e-010 1.4132e-011
291
root  -57.7441 39.7893 5.15171 -57.9462 -84.5964 53.0682
RightUpLeg  -13.5666 -12.5872 -11.4375
RightLeg  0.34698 -1.21541 0.845392
RightFoot  -4.2327 -0.647363 9.92354
RightToes  -4.65661e-009 0 -3.6325e-017
Spine  7.0414 0.628564 0.0816322
Spine1  5.20139 1.64516 -4.32744
HEad  -10.9644 -9.48667 -0.519841
LeftShoulder1  0.073694 3.30748 -31.4198
LeftArm  10.1153 -8.03073 -43.8969
LeftForeArm  21.9191 -26.1309 -4.37838
LeftHand  -0.0265251 5.72008 1.33776
RightShoulder  -0.620248 -5.2848 28.1016
RightArm  19.7558 3.84939 54.098
RightForeArm  12.5814 14.9702 6.23115
RightHand  -0.181874 4.22558 -2.47833
LeftUpLeg  -0.232964 5.18017 -3.16837
LeftLeg  17.4368 -0.020297 0.232842
LeftFoot  -11.7035 0.0779026 2.53722
LeftToes  9.86798e-010 -1.28139e-010 1.4132e-011
292
root  -57.1853 39.9458 5.31364 -63.1554 -85.5813 58.0092
RightUpLeg  -13.3305 -12.6332 -10.908
RightLeg  4.67243 -1.1943 0.835682
RightFoot  -4.673 -0.567244 9.17655
RightToes  -4.65661e-009 0 -3.6325e-017
Spine  7.02521 0.729987 0.659096
Spine1  5.21985 1.86612 -4.89774
HEad  -10.5451 -8.88953 -0.898826
LeftShoulder1  0.0375706 3.40477 -31.7861
LeftArm  9.36374 -5.69144 -43.2166
LeftForeArm  22.3788 -21.9709 -4.18888
LeftHand  -0.0479776 7.22714 -0.287273
RightShoulder  -0.63467 -5.32498 28.118
RightArm  15.0332 2.9801 53.972
RightForeArm  18.7377 9.66412 7.31695
RightHand  -0.226302 3.59484 -3.17256
LeftUpLeg  -0.0549054 5.97557 -2.70176
LeftLeg  15.846 0.133345 0.0413217
LeftFoot  -10.2007 0.0312535 3.06968
LeftToes  9.86798e-010 -1.28139e-010 1.4132e-011
293
root  -56.6728 40.0242 5.42482 -63.0592 -85.9857 58.0969
RightUpLeg  -13.2647 -13.1687 -10.6824
RightLeg  9.81105 0.295912 0.400738
RightFoot  -5.03204 -0.547258 9.28468
RightToes  -4.65661e-009 0 -3.6325e-017
Spine  6.39163 0.494832 0.425335
Spine1  5.47059 1.62928 -5.18061
HEad  -10.4754 -8.3863 -0.849068
LeftShoulder1  -0.0203557 3.55773 -31.7231
LeftArm  4.23468 -3.4108 -42.2202
LeftForeArm  26.2234 -16.3852 -6.33505
LeftHand  -0.100036 8.94298 -1.63639
RightShoulder  -0.747896 -5.60125 29.0041
RightArm  12.3809 2.10046 52.8075
RightForeArm  21.0636 5.52414 7.08818
RightHand  -0.21022 3.81422 -2.91603
LeftUpLeg  -0.731292 6.08198 -2.52599
LeftLeg  15.0697 0.201489 -0.147856
LeftFoot  -9.1477 -0.00761484 3.27551
LeftToes  9.86798e-010 -1.28139e-010 1.4132e-011
294
root  -56.1878 40.0538 5.44642 -57.8549 -86.1505 52.7965
RightUpLeg  -12.6397 -12.6006 -10.9316
RightLeg  15.7491 0.86395 0.0478628
RightFoot  -5.43 -0.502451 8.99933
RightToes  -4.65661e-009 0 -3.6325e-017
Spine  6.05846 0.419222 -0.370801
Spine1  5.79412 1.34926 -4.72732
HEad  -11.0046 -8.20288 -0.737345
LeftShoulder1  -0.0300719 3.58245 -31.7799
LeftArm  -2.35683 -0.919071 -41.1692
LeftForeArm  32.6726 -10.6079 -8.12892
LeftHand  -0.0728109 8.63555 -0.888821
RightShoulder  -0.815544 -5.76637 29.4264
RightArm  10.0697 -0.295115 51.242
RightForeArm  19.2793 4.03043 6.08876
RightHand  -0.163245 3.06909 -2.44633
LeftUpLeg  -1.34351 6.12958 -2.23175
LeftLeg  14.8003 -0.0843861 -0.33436
LeftFoot  -8.27488 -0.0432175 3.47347
LeftToes  9.86798e-010 -1.28139e-010 1.4132e-011
295
root  -55.7111 40.0666 5.47078 -56.5833 -86.3432 51.3004
RightUpLeg  -11.5054 -9.85288 -11.6897
RightLeg  21.6353 -0.241478 -0.313588
RightFoot  -5.48157 -0.4802 8.64908
RightToes  -4.65661e-009 0 -3.6325e-017
Spine  6.10126 0.490773 -0.854161
Spine1  5.78466 1.22071 -4.32012
HEad  -11.4795 -8.11097 -0.848064
LeftShoulder1  -0.15167 3.89486 -32.6573
LeftArm  -5.11851 1.27787 -39.576
LeftForeArm  36.3801 -5.541 -8.5922
LeftHand  -0.105264 9.17201 -1.50365
RightShoulder  -0.791313 -5.71102 29.2204
RightArm  8.12443 -3.28396 49.5756
RightForeArm  17.0013 3.86455 5.22409
RightHand  -0.110617 2.41698 -1.80914
LeftUpLeg  -1.88632 6.39607 -2.01377
LeftLeg  14.7819 -0.240876 -0.545442
LeftFoot  -7.46982 -0.077959 3.64191
LeftToes  9.86798e-010 -1.28139e-010 1.4132e-011
